<?xml version="1.0" encoding="utf-8"?>
<!-- Generator: Adobe Illustrator 15.0.0, SVG Export Plug-In . SVG Version: 6.00 Build 0)  -->
<!DOCTYPE svg PUBLIC "-//W3C//DTD SVG 1.1//EN" "http://www.w3.org/Graphics/SVG/1.1/DTD/svg11.dtd">
<svg version="1.1" id="Layer_1" xmlns="http://www.w3.org/2000/svg" xmlns:xlink="http://www.w3.org/1999/xlink" x="0px" y="0px"
	 width="25.45px" height="30px" viewBox="0 0 25.45 30" enable-background="new 0 0 25.45 30" xml:space="preserve">
<g>
	<path fill="#FFFFFF" d="M9.842,0H7.668C6.776,0,6.054,0.695,6.054,1.544v0.747H2.446C1.096,2.291,0,3.339,0,4.629v23.032
		C0,28.954,1.096,30,2.446,30h20.553c1.351,0,2.451-1.046,2.451-2.339V4.629c0-1.29-1.101-2.338-2.451-2.338h-3.597V1.544
		C19.402,0.695,18.674,0,17.788,0h-2.655H9.842z M22.999,26.273c0,0.791-0.674,1.436-1.506,1.436H3.957
		c-0.832,0-1.511-0.645-1.511-1.436V6.065c0-0.793,0.679-1.436,1.511-1.436h2.091c0,0.632,0.536,1.144,1.199,1.144h10.951
		c0.661,0,1.198-0.512,1.198-1.144h2.097c0.832,0,1.506,0.643,1.506,1.436V26.273z"/>
	<path fill="#FFFFFF" d="M9.097,9.814c0,1.122-0.953,2.03-2.129,2.03c-1.177,0-2.129-0.908-2.129-2.03
		c0-1.118,0.952-2.025,2.129-2.025C8.144,7.789,9.097,8.696,9.097,9.814"/>
	<path fill="#FFFFFF" d="M19.079,8.681h-7.263c-0.667,0-1.209,0.511-1.209,1.148c0,0.636,0.542,1.143,1.209,1.143h7.263
		c0.669,0,1.21-0.507,1.21-1.143C20.289,9.192,19.748,8.681,19.079,8.681"/>
	<path fill="#FFFFFF" d="M9.097,15.576c0,1.123-0.953,2.031-2.129,2.031c-1.177,0-2.129-0.908-2.129-2.031
		c0-1.122,0.952-2.029,2.129-2.029C8.144,13.547,9.097,14.455,9.097,15.576"/>
	<path fill="#FFFFFF" d="M19.079,14.408h-7.263c-0.667,0-1.209,0.526-1.209,1.168c0,0.637,0.542,1.164,1.209,1.164h7.263
		c0.669,0,1.21-0.527,1.21-1.164C20.289,14.934,19.748,14.408,19.079,14.408"/>
	<path fill="#FFFFFF" d="M9.097,21.73c0,1.123-0.953,2.031-2.129,2.031c-1.177,0-2.129-0.908-2.129-2.031s0.952-2.029,2.129-2.029
		C8.144,19.701,9.097,20.607,9.097,21.73"/>
	<path fill="#FFFFFF" d="M19.079,20.557h-7.263c-0.667,0-1.209,0.531-1.209,1.17c0,0.637,0.542,1.169,1.209,1.169h7.263
		c0.669,0,1.21-0.532,1.21-1.169C20.289,21.088,19.748,20.557,19.079,20.557"/>
</g>
</svg>
