<?xml version="1.0" encoding="utf-8"?>
<!-- Generator: Adobe Illustrator 15.0.0, SVG Export Plug-In . SVG Version: 6.00 Build 0)  -->
<!DOCTYPE svg PUBLIC "-//W3C//DTD SVG 1.1//EN" "http://www.w3.org/Graphics/SVG/1.1/DTD/svg11.dtd">
<svg version="1.1" id="Layer_1" xmlns="http://www.w3.org/2000/svg" xmlns:xlink="http://www.w3.org/1999/xlink" x="0px" y="0px"
	 width="37.26px" height="30px" viewBox="0 0 37.26 30" enable-background="new 0 0 37.26 30" xml:space="preserve">
<g>
	<path fill="#FFFFFF" d="M37.158,10.784L33.728,4.32c-0.116-0.219-0.313-0.369-0.539-0.431c-0.002-0.001-0.003-0.002-0.004-0.002
		L18.893,0.03c-0.147-0.04-0.305-0.04-0.453-0.001L4.076,3.886L4.074,3.888C3.847,3.951,3.649,4.101,3.533,4.32l-3.432,6.464
		c-0.111,0.21-0.132,0.458-0.056,0.685c0.075,0.225,0.24,0.412,0.456,0.513l2.983,1.41v8.829c0,0.335,0.191,0.642,0.494,0.787
		l14.308,6.904c0.12,0.058,0.25,0.088,0.38,0.088c0.129,0,0.255-0.03,0.374-0.085c0.001-0.001,0.003-0.001,0.006-0.003l14.309-6.904
		c0.302-0.147,0.492-0.452,0.492-0.787v-8.828c0-0.011,0-0.022-0.001-0.033l2.914-1.378c0.216-0.101,0.381-0.288,0.456-0.513
		C37.291,11.242,37.27,10.994,37.158,10.784 M18.666,1.775l11.427,3.086L18.63,9.109L7.172,4.863L18.666,1.775z M4.715,5.813
		l12.742,4.723L14.65,16.74L2.072,10.795L4.715,5.813z M5.229,21.674v-7.455l9.478,4.479c0.118,0.056,0.245,0.083,0.373,0.083
		c0.102,0,0.203-0.018,0.301-0.053c0.221-0.082,0.397-0.247,0.494-0.46l1.918-4.241v13.71L5.229,21.674z M32.103,21.674
		l-12.564,6.063V14.185l1.847,4.083c0.097,0.213,0.274,0.378,0.494,0.46c0.098,0.035,0.199,0.053,0.301,0.053
		c0.128,0,0.256-0.027,0.374-0.083l9.549-4.515V21.674z M22.609,16.74l-2.806-6.205l12.74-4.722l2.645,4.982L22.609,16.74z"/>
</g>
</svg>
