<?xml version="1.0" encoding="utf-8"?>
<!-- Generator: Adobe Illustrator 15.0.0, SVG Export Plug-In . SVG Version: 6.00 Build 0)  -->
<!DOCTYPE svg PUBLIC "-//W3C//DTD SVG 1.1//EN" "http://www.w3.org/Graphics/SVG/1.1/DTD/svg11.dtd">
<svg version="1.1" id="Layer_1" xmlns="http://www.w3.org/2000/svg" xmlns:xlink="http://www.w3.org/1999/xlink" x="0px" y="0px"
	 width="29.998px" height="30px" viewBox="0 0 29.998 30" enable-background="new 0 0 29.998 30" xml:space="preserve">
<path fill="#FFFFFF" d="M14.996,30c8.271,0,15.002-6.731,15.002-15.003C29.998,6.73,23.268,0,14.996,0C6.724,0,0,6.73,0,14.997
	C0,23.269,6.724,30,14.996,30 M14.996,2.617c6.824,0,12.384,5.555,12.384,12.38c0,6.825-5.56,12.386-12.384,12.386
	c-6.834,0-12.387-5.561-12.387-12.386C2.609,8.172,8.162,2.617,14.996,2.617"/>
<path fill="#FFFFFF" d="M11.064,14.498c0.316,0.371,0.772,0.711,1.367,1.027c0.594,0.317,1.394,0.545,2.381,0.697
	c0.277,0.047,0.563,0.11,0.847,0.19c0.284,0.07,0.546,0.172,0.782,0.299c0.238,0.137,0.435,0.285,0.585,0.469
	c0.152,0.173,0.231,0.386,0.231,0.631c0,0.292-0.145,0.53-0.437,0.712c-0.3,0.182-0.655,0.27-1.106,0.27
	c-0.339,0-0.642-0.024-0.902-0.08c-0.262-0.047-0.499-0.135-0.711-0.246c-0.214-0.111-0.428-0.246-0.633-0.42
	c-0.198-0.166-0.411-0.362-0.617-0.599h-2.452v3.669h2.452v-0.545c0.109,0.063,0.229,0.117,0.356,0.166
	c0.118,0.055,0.245,0.11,0.371,0.166v1.432h2.451v-1.1c0.523-0.033,1.012-0.152,1.457-0.332c0.45-0.183,0.837-0.435,1.161-0.737
	c0.325-0.3,0.586-0.655,0.767-1.052c0.189-0.402,0.286-0.836,0.286-1.304c0-0.245-0.048-0.561-0.134-0.949
	c-0.087-0.387-0.286-0.792-0.603-1.194c-0.309-0.397-0.774-0.766-1.368-1.115c-0.602-0.34-1.407-0.586-2.42-0.742
	c-1.638-0.239-2.444-0.745-2.444-1.498c0-0.266,0.127-0.52,0.389-0.758c0.262-0.229,0.639-0.346,1.121-0.346
	c0.343,0,0.635,0.029,0.888,0.086c0.246,0.062,0.482,0.15,0.688,0.254c0.213,0.109,0.411,0.252,0.593,0.418
	c0.19,0.172,0.38,0.371,0.577,0.586h2.46v-3.67h-2.442v0.529c-0.287-0.182-0.617-0.315-0.975-0.427V7.656h-2.451v1.162
	c-0.475,0.065-0.91,0.205-1.312,0.412c-0.403,0.199-0.752,0.452-1.052,0.768c-0.293,0.307-0.522,0.656-0.688,1.05
	c-0.166,0.397-0.245,0.817-0.245,1.26c0,0.307,0.047,0.647,0.149,1.043C10.535,13.738,10.74,14.118,11.064,14.498"/>
</svg>
