<?xml version="1.0" encoding="utf-8"?>
<!-- Generator: Adobe Illustrator 15.0.0, SVG Export Plug-In . SVG Version: 6.00 Build 0)  -->
<!DOCTYPE svg PUBLIC "-//W3C//DTD SVG 1.1//EN" "http://www.w3.org/Graphics/SVG/1.1/DTD/svg11.dtd">
<svg version="1.1" id="Layer_1" xmlns="http://www.w3.org/2000/svg" xmlns:xlink="http://www.w3.org/1999/xlink" x="0px" y="0px"
	 width="28px" height="28.002px" viewBox="0 0 28 28.002" enable-background="new 0 0 28 28.002" xml:space="preserve">
<path fill="#6688A1" d="M13.997,0C6.275,0,0,6.283,0,13.998c0,7.722,6.275,14.004,13.997,14.004C21.718,28.002,28,21.72,28,13.998
	C28,6.283,21.718,0,13.997,0z M18.122,17.844c-0.169,0.369-0.412,0.701-0.716,0.98c-0.303,0.281-0.663,0.518-1.084,0.688
	c-0.415,0.167-0.871,0.279-1.359,0.31v1.026h-2.288v-1.336c-0.118-0.054-0.236-0.104-0.347-0.155
	c-0.118-0.045-0.229-0.098-0.333-0.154v0.508H9.707v-3.424h2.288c0.192,0.221,0.392,0.403,0.576,0.559
	c0.191,0.162,0.392,0.289,0.591,0.391c0.198,0.105,0.42,0.187,0.664,0.23c0.243,0.053,0.525,0.075,0.842,0.075
	c0.421,0,0.753-0.082,1.033-0.253c0.272-0.17,0.407-0.391,0.407-0.664c0-0.229-0.074-0.428-0.216-0.59
	c-0.14-0.17-0.324-0.31-0.546-0.437c-0.221-0.118-0.465-0.214-0.73-0.28c-0.265-0.074-0.531-0.132-0.79-0.177
	c-0.922-0.141-1.668-0.354-2.223-0.65c-0.554-0.294-0.98-0.612-1.276-0.958c-0.303-0.355-0.494-0.709-0.591-1.071
	c-0.096-0.369-0.14-0.687-0.14-0.974c0-0.413,0.073-0.805,0.229-1.176c0.155-0.367,0.369-0.693,0.643-0.98
	c0.28-0.295,0.605-0.531,0.981-0.717c0.377-0.192,0.782-0.324,1.226-0.384V7.147h2.288v1.239c0.333,0.104,0.642,0.229,0.909,0.398
	V8.291h2.28v3.426h-2.297c-0.184-0.199-0.36-0.386-0.538-0.547c-0.17-0.154-0.354-0.287-0.554-0.391
	c-0.191-0.096-0.412-0.178-0.642-0.236c-0.236-0.053-0.509-0.08-0.828-0.08c-0.45,0-0.803,0.109-1.047,0.322
	c-0.244,0.223-0.362,0.46-0.362,0.709c0,0.703,0.753,1.176,2.281,1.396c0.945,0.146,1.697,0.376,2.259,0.693
	c0.554,0.326,0.989,0.67,1.277,1.041c0.295,0.376,0.48,0.753,0.562,1.115c0.081,0.361,0.125,0.656,0.125,0.885
	C18.389,17.062,18.299,17.467,18.122,17.844z"/>
</svg>
