<?xml version="1.0" encoding="utf-8"?>
<!-- Generator: Adobe Illustrator 15.0.0, SVG Export Plug-In . SVG Version: 6.00 Build 0)  -->
<!DOCTYPE svg PUBLIC "-//W3C//DTD SVG 1.1//EN" "http://www.w3.org/Graphics/SVG/1.1/DTD/svg11.dtd">
<svg version="1.1" id="Layer_1" xmlns="http://www.w3.org/2000/svg" xmlns:xlink="http://www.w3.org/1999/xlink" x="0px" y="0px"
	 width="44.889px" height="52.371px" viewBox="0 0 44.889 52.371" enable-background="new 0 0 44.889 52.371" xml:space="preserve">
<g>
	<path fill="#FFFFFF" d="M11.217,52.371H41.15c2.064,0,3.738-1.672,3.738-3.736V11.227V7.479v-3.74C44.889,1.672,43.215,0,41.15,0
		H3.736C1.664,0,0,1.672,0,3.738v44.896c0,2.064,1.664,3.736,3.736,3.736H7.48H11.217z M3.736,48.635V3.738H41.15v44.896H3.736z"/>
	<path fill="#FFFFFF" d="M35.533,11.227H16.828c-1.021,0-1.865,0.84-1.865,1.865c0,1.029,0.844,1.869,1.865,1.869h18.705
		c1.035,0,1.875-0.84,1.875-1.869C37.408,12.066,36.568,11.227,35.533,11.227z"/>
	<path fill="#FFFFFF" d="M35.533,22.445H9.354c-1.037,0-1.873,0.84-1.873,1.869c0,1.031,0.836,1.871,1.873,1.871h26.18
		c1.035,0,1.875-0.84,1.875-1.871C37.408,23.285,36.568,22.445,35.533,22.445z"/>
	<path fill="#FFFFFF" d="M35.533,29.926H9.354c-1.037,0-1.873,0.84-1.873,1.869c0,1.033,0.836,1.873,1.873,1.873h26.18
		c1.035,0,1.875-0.84,1.875-1.873C37.408,30.766,36.568,29.926,35.533,29.926z"/>
	<path fill="#FFFFFF" d="M35.533,37.412H9.354c-1.037,0-1.873,0.838-1.873,1.867s0.836,1.869,1.873,1.869h26.18
		c1.035,0,1.875-0.84,1.875-1.869S36.568,37.412,35.533,37.412z"/>
</g>
</svg>
