<?xml version="1.0" encoding="utf-8"?>
<!-- Generator: Adobe Illustrator 15.0.0, SVG Export Plug-In . SVG Version: 6.00 Build 0)  -->
<!DOCTYPE svg PUBLIC "-//W3C//DTD SVG 1.1//EN" "http://www.w3.org/Graphics/SVG/1.1/DTD/svg11.dtd">
<svg version="1.1" id="Layer_1" xmlns="http://www.w3.org/2000/svg" xmlns:xlink="http://www.w3.org/1999/xlink" x="0px" y="0px"
	 width="28px" height="28.002px" viewBox="0 0 28 28.002" enable-background="new 0 0 28 28.002" xml:space="preserve">
<g>
	<path fill="#FFFFFF" d="M13.997,0C6.275,0,0,6.284,0,13.999c0,7.721,6.275,14.003,13.997,14.003C21.718,28.002,28,21.72,28,13.999
		C28,6.284,21.718,0,13.997,0z M13.997,25.559c-6.379,0-11.562-5.189-11.562-11.56S7.618,2.443,13.997,2.443
		c6.37,0,11.56,5.185,11.56,11.556S20.367,25.559,13.997,25.559z"/>
	<path fill="#FFFFFF" d="M17.702,14.625c-0.288-0.371-0.724-0.715-1.277-1.042c-0.562-0.317-1.313-0.546-2.259-0.693
		c-1.528-0.221-2.281-0.693-2.281-1.397c0-0.249,0.118-0.485,0.362-0.708c0.244-0.214,0.597-0.323,1.047-0.323
		c0.319,0,0.592,0.028,0.828,0.081c0.229,0.058,0.45,0.14,0.642,0.236c0.199,0.103,0.384,0.236,0.554,0.391
		c0.178,0.161,0.354,0.347,0.538,0.547h2.297V8.291h-2.28v0.495c-0.268-0.17-0.576-0.294-0.909-0.398v-1.24h-2.288v1.084
		c-0.443,0.06-0.849,0.191-1.226,0.384c-0.376,0.186-0.701,0.422-0.981,0.716c-0.273,0.287-0.487,0.613-0.643,0.98
		c-0.155,0.371-0.229,0.763-0.229,1.176c0,0.287,0.044,0.604,0.14,0.974c0.097,0.362,0.288,0.716,0.591,1.071
		c0.296,0.346,0.723,0.664,1.276,0.958c0.555,0.296,1.301,0.51,2.223,0.65c0.259,0.045,0.525,0.103,0.79,0.177
		c0.266,0.066,0.51,0.162,0.73,0.28c0.222,0.127,0.406,0.267,0.546,0.437c0.142,0.162,0.216,0.361,0.216,0.589
		c0,0.274-0.135,0.495-0.407,0.665c-0.28,0.171-0.612,0.253-1.033,0.253c-0.316,0-0.599-0.022-0.842-0.075
		c-0.244-0.044-0.466-0.125-0.664-0.23c-0.199-0.102-0.399-0.229-0.591-0.391c-0.185-0.155-0.384-0.338-0.576-0.559H9.707v3.424
		h2.288v-0.508c0.104,0.057,0.215,0.109,0.333,0.154c0.11,0.051,0.229,0.102,0.347,0.155v1.336h2.288v-1.026
		c0.488-0.03,0.944-0.143,1.359-0.31c0.421-0.171,0.781-0.407,1.084-0.688c0.304-0.279,0.547-0.611,0.716-0.98
		c0.177-0.377,0.267-0.782,0.267-1.219c0-0.228-0.044-0.523-0.125-0.885C18.183,15.378,17.997,15.001,17.702,14.625z"/>
</g>
</svg>
