<?xml version="1.0" encoding="utf-8"?>
<!-- Generator: Adobe Illustrator 15.0.0, SVG Export Plug-In . SVG Version: 6.00 Build 0)  -->
<!DOCTYPE svg PUBLIC "-//W3C//DTD SVG 1.1//EN" "http://www.w3.org/Graphics/SVG/1.1/DTD/svg11.dtd">
<svg version="1.1" id="Layer_1" xmlns="http://www.w3.org/2000/svg" xmlns:xlink="http://www.w3.org/1999/xlink" x="0px" y="0px"
	 width="31.792px" height="17.524px" viewBox="0 0 31.792 17.524" enable-background="new 0 0 31.792 17.524" xml:space="preserve">
<g>
	<path fill="#FFFFFF" d="M8.212,6.902l0.82,0.003C9.153,6.9,9.37,6.854,9.375,6.575V6.493c0-0.362-0.399-0.342-0.399-0.342
		L6.562,6.142c-0.434-0.002-0.419,0.27-0.419,0.27L6.142,6.517c0,0-0.033,0.38,0.37,0.381L7.305,6.9l-0.003,3.163
		c0.01,0.136,0.062,0.365,0.336,0.365l0.242,0.001c0.137-0.019,0.332-0.106,0.331-0.483L8.212,6.902z M8.212,6.902"/>
	<path fill="#FFFFFF" d="M10.943,6.722c0.001-0.552-0.386-0.567-0.386-0.567l-0.14,0c-0.376,0-0.383,0.466-0.383,0.466l-0.002,3.342
		c0.003,0.095,0.027,0.474,0.335,0.476l0.197,0c0.13-0.009,0.376-0.071,0.377-0.436L10.943,6.722z M10.943,6.722"/>
	<path fill="#FFFFFF" d="M14.931,9.794c0-0.247-0.356-0.151-0.356-0.151s-0.005-0.009-0.006-0.01
		c-0.27,0.072-0.521,0.122-0.73,0.121c-0.717-0.003-1.075-0.482-1.073-1.437c-0.001-0.458,0.093-0.816,0.279-1.072
		c0.188-0.257,0.453-0.383,0.795-0.382c0.156,0,0.315,0.029,0.477,0.086c0.021,0.007,0.039,0.017,0.059,0.024V6.97
		c0,0,0.405,0.229,0.555-0.148l0.034-0.086c0.087-0.22-0.053-0.359-0.14-0.422c-0.328-0.124-0.658-0.207-0.983-0.208
		c-0.409-0.001-0.765,0.086-1.068,0.264s-0.536,0.434-0.698,0.768c-0.163,0.334-0.243,0.724-0.245,1.169
		c0,0.707,0.165,1.25,0.496,1.628c0.33,0.38,0.806,0.571,1.428,0.573c0.354,0,0.674-0.059,0.973-0.157
		c0.094-0.05,0.215-0.157,0.206-0.404V9.794z M14.931,9.794"/>
	<path fill="#FFFFFF" d="M19.083,10.147l-1.302-2.072l1.232-1.558l0.001,0c0.265-0.333-0.149-0.332-0.149-0.332l-0.341-0.001
		c-0.258,0-0.407,0.188-0.407,0.188l-1.009,1.263L16.75,8.137l0.001-1.466c0-0.411-0.24-0.483-0.36-0.495h-0.21
		c-0.34-0.001-0.339,0.469-0.339,0.469l-0.002,3.363c0.004,0.131,0.045,0.449,0.361,0.449l0.224,0.003
		c0.141-0.025,0.324-0.125,0.324-0.496V8.931l0.385-0.274l0.956,1.544c0,0,0.162,0.262,0.433,0.266l0.434,0.001
		C19.227,10.468,19.15,10.262,19.083,10.147L19.083,10.147z M19.083,10.147"/>
	<path fill="#FFFFFF" d="M22.292,9.947c-0.003-0.232-0.371-0.218-0.371-0.218l-0.863-0.004c-0.242,0-0.31-0.162-0.324-0.285
		l0.001-0.465c0-0.079,0.037-0.354,0.461-0.353l0.677,0.003c0.109-0.01,0.3-0.068,0.312-0.375l-0.001-0.105
		c0-0.27-0.357-0.265-0.357-0.265l-0.7-0.002c-0.398,0-0.392-0.358-0.392-0.358l-0.001-0.259c0,0-0.011-0.325,0.326-0.323
		l0.874,0.003c0.398,0.002,0.359-0.353,0.359-0.353V6.458c0-0.281-0.359-0.261-0.359-0.261L20.33,6.191
		c-0.434-0.001-0.504,0.481-0.504,0.481l-0.001,3.326c0.001,0.11,0.039,0.474,0.467,0.475l1.642,0.005
		c0.127-0.008,0.353-0.066,0.356-0.385L22.292,9.947z M22.292,9.947"/>
	<g>
		<defs>
			
				<rect id="SVGID_1_" x="-0.916" y="-8.046" transform="matrix(-0.7071 -0.7071 0.7071 -0.7071 21.0543 26.1966)" width="33.738" height="33.567"/>
		</defs>
		<clipPath id="SVGID_2_">
			<use xlink:href="#SVGID_1_"  overflow="visible"/>
		</clipPath>
		<path clip-path="url(#SVGID_2_)" fill="#FFFFFF" d="M24.837,7.404c0-0.406,0.256-0.439,0.324-0.44l0.503,0.001
			c0.11-0.007,0.328-0.057,0.336-0.354l0.001-0.082c0-0.261-0.255-0.312-0.397-0.32l-2.498-0.009
			c-0.341-0.002-0.338,0.282-0.338,0.282v0.13c0,0-0.026,0.343,0.314,0.344l0.487,0.001c0.102,0.004,0.36,0.046,0.361,0.396
			l-0.003,2.698c0.003,0.112,0.031,0.434,0.312,0.435l0.143,0.001c0.373,0.003,0.443-0.275,0.453-0.43L24.837,7.404z M24.837,7.404"
			/>
		<path clip-path="url(#SVGID_2_)" fill="#FFFFFF" d="M28.92,15.608l-2.059-0.009l-0.39-0.001L5.976,15.526l-1-0.004l-2.262-0.008
			c-1.076-0.004-1.049-0.812-1.049-0.812v-0.848c0,0,0.04-0.681,0.691-1.039c0-0.001,0.002-0.003,0.003-0.002
			C3.338,12.347,5,11.245,4.979,9.101L4.98,8.587C4.982,5.95,3.099,4.792,2.177,4.381v0c-0.486-0.247-0.499-0.75-0.499-0.75V2.459
			c0,0,0.048-0.633,0.833-0.63l2.473,0.008L5.523,1.84l19.863,0.071l1.483,0.005l2.008,0.006C29.119,1.928,29.979,2,29.978,2.817
			l-0.002,0.395c-0.013,0.216-0.118,0.702-0.71,1.151c-0.918,0.565-2.397,1.875-2.399,4.441L26.865,8.96
			c-0.07,2.14,1.228,3.358,2.126,3.944l-0.001,0.002c0,0,0.829,0.456,0.827,1.355l0.001,0.199
			C29.799,15.393,29.252,15.579,28.92,15.608L28.92,15.608z M31.736,15.993l0.002-2.648c0-1.066-1.256-1.45-1.256-1.45v-0.005
			c-1.211-0.499-2.064-1.689-2.064-3.078c0-1.391,0.857-2.576,2.07-3.066c0.011-0.005,0.017-0.01,0.029-0.015
			c1.122-0.505,1.218-1.479,1.225-1.744l0.001-2.662c0.001-1.162-1.159-1.264-1.461-1.271L1.671-0.047
			C0.083-0.054,0.109,1.235,0.109,1.235L0.107,4.318c0,0-0.029,0.789,1.004,1.229C1.145,5.562,1.166,5.575,1.194,5.59
			c1.297,0.455,2.233,1.681,2.233,3.133c-0.002,1.382-0.847,2.561-2.048,3.057l0.001,0.001c0,0-1.276,0.382-1.276,1.46L0.101,15.94
			c0.003,0.189,0.075,1.533,1.84,1.54l28.425,0.103C30.833,17.549,31.736,17.315,31.736,15.993L31.736,15.993z M31.736,15.993"/>
	</g>
</g>
</svg>
