<?xml version="1.0" encoding="utf-8"?>
<!-- Generator: Adobe Illustrator 15.0.0, SVG Export Plug-In . SVG Version: 6.00 Build 0)  -->
<!DOCTYPE svg PUBLIC "-//W3C//DTD SVG 1.1//EN" "http://www.w3.org/Graphics/SVG/1.1/DTD/svg11.dtd">
<svg version="1.1" id="Layer_1" xmlns="http://www.w3.org/2000/svg" xmlns:xlink="http://www.w3.org/1999/xlink" x="0px" y="0px"
	 width="26.199px" height="26.199px" viewBox="0 0 26.199 26.199" enable-background="new 0 0 26.199 26.199" xml:space="preserve">
<g>
	<path fill="#FFFFFF" d="M26.199,4.493c0-1.365-1.102-2.477-2.457-2.477h-2.599V0.825C21.144,0.37,20.778,0,20.326,0
		c-0.453,0-0.819,0.37-0.819,0.825v1.191H6.656V0.825C6.656,0.37,6.288,0,5.837,0C5.385,0,5.018,0.37,5.018,0.825v1.191H2.457
		C1.102,2.017,0,3.128,0,4.493v3.77c0,0.046,0.019,0.084,0.026,0.128C0.019,8.435,0,8.473,0,8.519c0,0,0,0.002,0,0.004
		s0,0.004,0,0.006v15.195c0,1.365,1.102,2.475,2.457,2.475h21.285c1.355,0,2.457-1.109,2.457-2.477V8.529c0-0.002,0-0.004,0-0.006
		c0,0,0-0.002,0-0.004c0-0.046-0.019-0.084-0.026-0.128c0.008-0.044,0.026-0.082,0.026-0.128V4.493z M24.562,23.723
		c0,0.456-0.368,0.825-0.82,0.825H2.457c-0.452,0-0.82-0.369-0.82-0.825V9.345h22.926V23.723z M24.562,7.693H1.637v-3.2
		c0-0.455,0.368-0.825,0.82-0.825h2.561v1.193c0,0.456,0.367,0.823,0.819,0.823c0.451,0,0.819-0.367,0.819-0.823V3.668h12.851v1.193
		c0,0.456,0.367,0.825,0.819,0.825s0.82-0.369,0.82-0.825V3.668h2.596c0.452,0,0.82,0.37,0.82,0.825V7.693z M24.562,7.693"/>
	<path fill="#FFFFFF" d="M9.49,13.848c0,0.456-0.367,0.826-0.819,0.826s-0.819-0.37-0.819-0.826s0.367-0.826,0.819-0.826
		S9.49,13.392,9.49,13.848L9.49,13.848z M9.49,13.848"/>
	<path fill="#FFFFFF" d="M13.448,13.848c0,0.456-0.366,0.826-0.819,0.826c-0.452,0-0.817-0.37-0.817-0.826s0.365-0.826,0.817-0.826
		C13.082,13.022,13.448,13.392,13.448,13.848L13.448,13.848z M13.448,13.848"/>
	<path fill="#FFFFFF" d="M17.874,13.848c0,0.456-0.366,0.826-0.819,0.826c-0.452,0-0.817-0.37-0.817-0.826s0.365-0.826,0.817-0.826
		C17.508,13.022,17.874,13.392,17.874,13.848L17.874,13.848z M17.874,13.848"/>
	<path fill="#FFFFFF" d="M22.392,13.848c0,0.456-0.366,0.826-0.819,0.826c-0.452,0-0.817-0.37-0.817-0.826s0.365-0.826,0.817-0.826
		C22.025,13.022,22.392,13.392,22.392,13.848L22.392,13.848z M22.392,13.848"/>
	<path fill="#FFFFFF" d="M5.444,16.704c0,0.456-0.365,0.826-0.817,0.826c-0.451,0-0.819-0.37-0.819-0.826
		c0-0.455,0.368-0.825,0.819-0.825C5.079,15.879,5.444,16.249,5.444,16.704L5.444,16.704z M5.444,16.704"/>
	<path fill="#FFFFFF" d="M9.49,16.704c0,0.456-0.367,0.826-0.819,0.826s-0.819-0.37-0.819-0.826c0-0.455,0.367-0.825,0.819-0.825
		S9.49,16.249,9.49,16.704L9.49,16.704z M9.49,16.704"/>
	<path fill="#FFFFFF" d="M13.448,16.704c0,0.456-0.366,0.826-0.819,0.826c-0.452,0-0.817-0.37-0.817-0.826
		c0-0.455,0.365-0.825,0.817-0.825C13.082,15.879,13.448,16.249,13.448,16.704L13.448,16.704z M13.448,16.704"/>
	<path fill="#FFFFFF" d="M17.874,16.704c0,0.456-0.366,0.826-0.819,0.826c-0.452,0-0.817-0.37-0.817-0.826
		c0-0.455,0.365-0.825,0.817-0.825C17.508,15.879,17.874,16.249,17.874,16.704L17.874,16.704z M17.874,16.704"/>
	<path fill="#FFFFFF" d="M22.392,16.704c0,0.456-0.366,0.826-0.819,0.826c-0.452,0-0.817-0.37-0.817-0.826
		c0-0.455,0.365-0.825,0.817-0.825C22.025,15.879,22.392,16.249,22.392,16.704L22.392,16.704z M22.392,16.704"/>
	<path fill="#FFFFFF" d="M5.444,19.55c0,0.455-0.365,0.824-0.817,0.824c-0.451,0-0.819-0.369-0.819-0.824
		c0-0.457,0.368-0.826,0.819-0.826C5.079,18.724,5.444,19.093,5.444,19.55L5.444,19.55z M5.444,19.55"/>
	<path fill="#FFFFFF" d="M9.49,19.55c0,0.455-0.367,0.824-0.819,0.824s-0.819-0.369-0.819-0.824c0-0.457,0.367-0.826,0.819-0.826
		S9.49,19.093,9.49,19.55L9.49,19.55z M9.49,19.55"/>
	<path fill="#FFFFFF" d="M13.448,19.55c0,0.455-0.366,0.824-0.819,0.824c-0.452,0-0.817-0.369-0.817-0.824
		c0-0.457,0.365-0.826,0.817-0.826C13.082,18.724,13.448,19.093,13.448,19.55L13.448,19.55z M13.448,19.55"/>
	<path fill="#FFFFFF" d="M17.874,19.55c0,0.455-0.366,0.824-0.819,0.824c-0.452,0-0.817-0.369-0.817-0.824
		c0-0.457,0.365-0.826,0.817-0.826C17.508,18.724,17.874,19.093,17.874,19.55L17.874,19.55z M17.874,19.55"/>
	<path fill="#FFFFFF" d="M22.392,19.55c0,0.455-0.366,0.824-0.819,0.824c-0.452,0-0.817-0.369-0.817-0.824
		c0-0.457,0.365-0.826,0.817-0.826C22.025,18.724,22.392,19.093,22.392,19.55L22.392,19.55z M22.392,19.55"/>
	<path fill="#FFFFFF" d="M5.444,22.407c0,0.456-0.365,0.824-0.817,0.824c-0.451,0-0.819-0.368-0.819-0.824
		c0-0.458,0.368-0.825,0.819-0.825C5.079,21.582,5.444,21.949,5.444,22.407L5.444,22.407z M5.444,22.407"/>
	<path fill="#FFFFFF" d="M9.49,22.407c0,0.456-0.367,0.824-0.819,0.824s-0.819-0.368-0.819-0.824c0-0.458,0.367-0.825,0.819-0.825
		S9.49,21.949,9.49,22.407L9.49,22.407z M9.49,22.407"/>
	<path fill="#FFFFFF" d="M13.448,22.407c0,0.456-0.366,0.824-0.819,0.824c-0.452,0-0.817-0.368-0.817-0.824
		c0-0.458,0.365-0.825,0.817-0.825C13.082,21.582,13.448,21.949,13.448,22.407L13.448,22.407z M13.448,22.407"/>
</g>
</svg>
