<?xml version="1.0" encoding="utf-8"?>
<!-- Generator: Adobe Illustrator 15.0.0, SVG Export Plug-In . SVG Version: 6.00 Build 0)  -->
<!DOCTYPE svg PUBLIC "-//W3C//DTD SVG 1.1//EN" "http://www.w3.org/Graphics/SVG/1.1/DTD/svg11.dtd">
<svg version="1.1" id="Layer_1" xmlns="http://www.w3.org/2000/svg" xmlns:xlink="http://www.w3.org/1999/xlink" x="0px" y="0px"
	 width="152.732px" height="138.758px" viewBox="0 0 152.732 138.758" enable-background="new 0 0 152.732 138.758"
	 xml:space="preserve">
<g>
	<g>
		<defs>
			<rect id="SVGID_1_" width="152.854" height="138.758"/>
		</defs>
		<clipPath id="SVGID_2_">
			<use xlink:href="#SVGID_1_"  overflow="visible"/>
		</clipPath>
	</g>
</g>
<path fill="#181D62" d="M5.646,11.307H21.84l23.081,83.425c0.663,2.439,2.929,4.141,5.451,4.141h70.916
	c2.273,0,4.238-1.325,5.188-3.388l25.784-59.319c0.775-1.792,0.579-3.779-0.467-5.36c-1.024-1.611-2.815-2.545-4.69-2.545H68.748
	c-3.102,0-5.661,2.545-5.661,5.631c0,3.117,2.56,5.662,5.661,5.662h69.683L117.532,87.58H54.61L31.551,4.155
	C30.896,1.701,28.622,0,26.085,0H5.646C2.537,0,0,2.544,0,5.646C0,8.763,2.537,11.307,5.646,11.307L5.646,11.307z M5.646,11.307"/>
<path fill="#181D62" d="M45.012,138.637c7.069,0,12.806-5.751,12.806-12.828c0-7.062-5.736-12.813-12.806-12.813
	s-12.813,5.751-12.813,12.813C32.198,132.886,37.942,138.637,45.012,138.637L45.012,138.637z M45.012,138.637"/>
<path fill="#181D62" d="M125.06,138.637h0.941c3.388-0.301,6.489-1.792,8.763-4.441c2.251-2.544,3.282-5.842,3.102-9.335
	c-0.474-6.956-6.603-12.332-13.648-11.865c-7.069,0.482-12.354,6.7-11.872,13.657C112.812,133.353,118.375,138.637,125.06,138.637
	L125.06,138.637z M125.06,138.637"/>
</svg>
