<?xml version="1.0" encoding="utf-8"?>
<!-- Generator: Adobe Illustrator 15.0.0, SVG Export Plug-In . SVG Version: 6.00 Build 0)  -->
<!DOCTYPE svg PUBLIC "-//W3C//DTD SVG 1.1//EN" "http://www.w3.org/Graphics/SVG/1.1/DTD/svg11.dtd">
<svg version="1.1" id="Layer_1" xmlns="http://www.w3.org/2000/svg" xmlns:xlink="http://www.w3.org/1999/xlink" x="0px" y="0px"
	 width="25.002px" height="24.999px" viewBox="0 0 25.002 24.999" enable-background="new 0 0 25.002 24.999" xml:space="preserve">
<g>
	<path fill="#FFFFFF" d="M9.377,0H0v9.376h9.377V0z M7.813,7.812H1.564V1.563h6.249V7.812z M7.813,7.812"/>
	<rect x="3.129" y="3.127" fill="#FFFFFF" width="3.122" height="3.122"/>
	<path fill="#FFFFFF" d="M0,24.999h9.377v-9.375H0V24.999z M1.564,17.188h6.249v6.248H1.564V17.188z M1.564,17.188"/>
	<rect x="3.129" y="18.751" fill="#FFFFFF" width="3.122" height="3.123"/>
	<path fill="#FFFFFF" d="M15.625,0v9.376h9.377V0H15.625z M23.438,7.812h-6.248V1.563h6.248V7.812z M23.438,7.812"/>
	<rect x="18.752" y="3.127" fill="#FFFFFF" width="3.123" height="3.122"/>
	<path fill="#FFFFFF" d="M3.129,10.939H0v3.121h4.686v-1.565H3.129V10.939z M3.129,10.939"/>
	<rect x="10.941" y="14.061" fill="#FFFFFF" width="3.121" height="3.128"/>
	<rect x="4.686" y="10.939" fill="#FFFFFF" width="3.128" height="1.558"/>
	<path fill="#FFFFFF" d="M14.061,18.751h-3.119v1.555h1.557v1.566h1.562v-1.566V18.751z M14.061,18.751"/>
	<path fill="#FFFFFF" d="M9.377,10.939v1.556H7.813v1.565h3.128v-3.121H9.377z M9.377,10.939"/>
	<rect x="12.498" y="6.247" fill="#FFFFFF" width="1.562" height="3.129"/>
	<path fill="#FFFFFF" d="M14.061,12.495v1.565h3.129v-3.121h-4.691v1.556H14.061z M14.061,12.495"/>
	<rect x="10.941" y="9.376" fill="#FFFFFF" width="1.557" height="1.563"/>
	<rect x="14.061" y="21.872" fill="#FFFFFF" width="3.129" height="3.127"/>
	<rect x="10.941" y="21.872" fill="#FFFFFF" width="1.557" height="3.127"/>
	<rect x="14.061" y="17.188" fill="#FFFFFF" width="1.564" height="1.562"/>
	<path fill="#FFFFFF" d="M14.061,4.684v-3.12h-1.562V0h-1.557v6.247h1.557V4.684H14.061z M14.061,4.684"/>
	<rect x="18.752" y="21.872" fill="#FFFFFF" width="1.559" height="3.127"/>
	<rect x="18.752" y="18.751" fill="#FFFFFF" width="3.123" height="1.557"/>
	<rect x="17.189" y="20.306" fill="#FFFFFF" width="1.562" height="1.566"/>
	<rect x="15.625" y="18.751" fill="#FFFFFF" width="1.564" height="1.557"/>
	<path fill="#FFFFFF" d="M21.873,15.624v1.564h1.564v1.562h1.564v-3.127h-1.564H21.873z M21.873,15.624"/>
	<path fill="#FFFFFF" d="M23.438,20.306h-1.564v4.693h3.129v-3.127h-1.564V20.306z M23.438,20.306"/>
	<path fill="#FFFFFF" d="M15.625,15.624v1.564h4.684v-3.128h-3.119v1.563H15.625z M15.625,15.624"/>
	<path fill="#FFFFFF" d="M18.752,10.939v1.556h3.121v1.565h3.129v-3.121h-3.129H18.752z M18.752,10.939"/>
</g>
</svg>
