<?xml version="1.0" encoding="utf-8"?>
<!-- Generator: Adobe Illustrator 15.0.0, SVG Export Plug-In . SVG Version: 6.00 Build 0)  -->
<!DOCTYPE svg PUBLIC "-//W3C//DTD SVG 1.1//EN" "http://www.w3.org/Graphics/SVG/1.1/DTD/svg11.dtd">
<svg version="1.1" id="Layer_1" xmlns="http://www.w3.org/2000/svg" xmlns:xlink="http://www.w3.org/1999/xlink" x="0px" y="0px"
	 width="52.455px" height="61.062px" viewBox="0 0 52.455 61.062" enable-background="new 0 0 52.455 61.062" xml:space="preserve">
<g>
	<path fill="#FFFFFF" d="M28.285,38.324h-3.494c-1.27,0-2.299-1.025-2.299-2.299c0-1.27,1.029-2.297,2.299-2.297h6.145
		c0.838,0,1.52-0.688,1.52-1.523s-0.682-1.524-1.52-1.524h-2.883v-2.122c0-0.836-0.684-1.521-1.52-1.521
		c-0.842,0-1.525,0.685-1.525,1.521v2.122h-0.217c-2.947,0-5.346,2.403-5.346,5.344c0,2.943,2.398,5.344,5.346,5.344h3.494
		c1.266,0,2.299,1.031,2.299,2.297c0,1.273-1.033,2.299-2.299,2.299h-6.26c-0.838,0-1.521,0.688-1.521,1.527
		c0,0.836,0.684,1.52,1.521,1.52h2.994v2.172c0,0.84,0.688,1.525,1.521,1.525c0.846,0,1.527-0.686,1.527-1.525v-2.172h0.287
		c2.926-0.035,5.275-2.42,5.275-5.346C33.631,40.724,31.23,38.324,28.285,38.324L28.285,38.324z M28.285,38.324"/>
	<path fill="#FFFFFF" d="M49.43,34.871c-1.592-3.682-3.805-7.249-6.6-10.588c-3.371-4.059-6.742-6.779-8.451-8.035l6.473-12.012
		c0.314-0.598,0.213-1.331-0.275-1.801C38.896,0.8,37.119,0,35.143,0c-1.822,0-3.486,0.685-4.926,1.29
		c-1.146,0.472-2.227,0.93-3.107,0.93c-0.258,0-0.488-0.037-0.721-0.126c-3.016-1.106-5.336-1.791-7.592-1.791
		c-2.84,0-5.268,1.146-7.637,3.581c-0.496,0.504-0.57,1.307-0.182,1.901l6.984,10.551c-1.73,1.283-5.031,3.974-8.338,7.946
		c-2.789,3.34-5.006,6.906-6.604,10.588C1.016,39.501,0,44.343,0,49.242c0,6.514,5.311,11.82,11.814,11.82h28.818
		c6.514,0,11.822-5.307,11.822-11.82C52.455,44.343,51.441,39.501,49.43,34.871L49.43,34.871z M14.229,5.151
		c1.48-1.268,2.883-1.826,4.568-1.826c1.809,0,3.838,0.608,6.543,1.609c0.553,0.203,1.15,0.303,1.764,0.303
		c1.484,0,2.902-0.583,4.262-1.152c1.314-0.547,2.555-1.066,3.766-1.066c0.582,0,1.404,0.102,2.445,0.836L31.484,15.18H20.871
		L14.229,5.151z M40.633,58.013H11.814c-4.836,0-8.768-3.938-8.768-8.771c0-8.141,2.984-15.857,8.848-22.938
		c3.703-4.481,7.479-7.263,8.623-8.076h11.398c1.152,0.799,4.912,3.595,8.617,8.076c5.881,7.081,8.852,14.788,8.852,22.938
		C49.408,54.076,45.467,58.013,40.633,58.013L40.633,58.013z M40.633,58.013"/>
</g>
</svg>
